<?xml version="1.0" standalone="no"?>
<!DOCTYPE svg PUBLIC "-//W3C//DTD SVG 20010904//EN"
 "http://www.w3.org/TR/2001/REC-SVG-20010904/DTD/svg10.dtd">
<svg version="1.0" xmlns="http://www.w3.org/2000/svg"
 width="1038.000000pt" height="240.000000pt" viewBox="0 0 1038.000000 240.000000"
 preserveAspectRatio="xMidYMid meet">

<g transform="translate(0.000000,240.000000) scale(0.100000,-0.100000)"
fill="#000000" stroke="none">
<path d="M2723 2293 c-80 -43 -113 -77 -113 -116 0 -29 11 -42 90 -112 173
-150 203 -198 135 -217 -16 -5 -184 -6 -372 -2 -340 7 -343 7 -343 -14 0 -11
8 -23 17 -26 34 -13 361 -45 578 -57 471 -25 1022 24 1491 132 106 24 124 33
107 50 -14 14 -36 14 -158 -1 -335 -40 -585 -59 -585 -45 0 3 6 21 14 39 16
39 27 43 191 80 61 13 121 29 135 34 l25 10 -26 12 c-28 13 -70 7 -353 -46
-71 -13 -138 -22 -148 -18 -14 4 -18 16 -18 48 0 99 -13 198 -27 203 -24 9
-35 -11 -58 -112 -13 -53 -25 -99 -29 -102 -3 -3 -11 1 -19 8 -7 8 -45 42 -83
75 -38 34 -87 78 -109 98 -75 68 -140 99 -219 104 -64 3 -76 1 -123 -25z"/>
<path d="M4975 1939 c-159 -3 -371 -8 -470 -9 -99 -2 225 -7 720 -11 829 -7
1579 -25 2000 -49 94 -5 260 -14 370 -20 352 -19 809 -57 1137 -95 550 -64
900 -140 1090 -237 139 -72 170 -137 108 -230 -28 -43 -399 -408 -423 -417 -6
-2 -8 3 -4 13 4 9 16 73 27 142 12 70 30 149 40 178 11 28 20 52 20 54 0 1
-82 2 -183 2 l-183 0 0 -62 c-1 -56 -26 -214 -69 -433 -8 -38 -21 -115 -30
-170 -9 -54 -25 -122 -36 -150 -10 -27 -19 -51 -19 -52 0 -2 82 -3 183 -3
l182 0 1 63 c1 77 22 195 39 223 8 12 31 35 53 52 l39 32 25 -73 c14 -39 42
-123 63 -184 l39 -113 199 0 c109 0 197 3 195 8 -2 4 -19 39 -39 77 -20 39
-68 149 -107 245 -39 96 -80 199 -93 229 l-23 53 70 61 c137 121 267 253 301
306 57 86 38 146 -64 214 -200 133 -603 214 -1413 286 -310 28 -930 57 -1490
71 -446 11 -1781 10 -2255 -1z"/>
<path d="M703 1236 c14 -21 14 -26 -8 -57 -12 -19 -98 -149 -190 -289 -214
-326 -268 -405 -312 -457 l-36 -43 114 0 114 0 0 43 c1 33 11 57 49 115 l49
72 197 0 c149 0 199 -3 202 -12 3 -7 11 -43 18 -81 12 -60 12 -71 -3 -102
l-17 -35 210 0 c116 0 210 2 210 4 0 3 -9 20 -19 38 -10 18 -31 87 -46 153
-28 126 -74 320 -127 543 l-32 132 -194 0 -194 0 15 -24z m81 -213 c4 -21 18
-82 32 -136 13 -54 24 -104 24 -112 0 -12 -23 -15 -130 -15 -71 0 -130 2 -130
4 0 2 30 51 66 108 37 56 78 122 93 146 14 23 29 42 32 42 4 0 10 -17 13 -37z"/>
<path d="M1330 1203 c10 -32 25 -98 34 -148 8 -49 27 -148 40 -220 13 -71 37
-201 53 -287 l28 -158 182 0 183 0 25 40 c14 22 25 41 25 43 0 2 36 66 80 141
44 75 80 139 80 141 0 3 11 22 24 43 12 20 65 111 115 202 51 91 105 181 120
200 49 63 52 60 -62 60 l-104 0 -1 -35 c-2 -43 11 -18 -185 -367 -89 -158
-165 -281 -168 -275 -4 7 -12 41 -18 77 -6 36 -17 101 -26 145 -52 274 -66
379 -57 417 l10 38 -198 0 -198 0 18 -57z"/>
<path d="M2428 1217 c2 -24 -1 -70 -8 -103 -6 -32 -22 -122 -35 -199 -14 -77
-32 -176 -40 -220 -9 -44 -20 -106 -26 -138 -9 -53 -22 -99 -44 -149 -7 -17 6
-18 180 -18 l188 0 -7 30 c-5 27 10 126 74 490 35 200 52 274 70 313 l18 37
-186 0 -187 0 3 -43z"/>
<path d="M3240 1239 c6 -11 9 -26 7 -33 -4 -10 -337 -518 -436 -665 -20 -30
-56 -76 -79 -102 l-44 -49 117 0 c105 0 116 2 111 17 -10 25 12 79 61 149 l45
64 194 0 194 0 11 -28 c14 -33 17 -160 5 -184 -8 -17 5 -18 204 -18 l212 0
-20 33 c-11 17 -32 84 -47 147 -15 63 -31 129 -36 145 -4 17 -29 122 -55 235
-26 113 -52 228 -59 255 l-11 50 -193 3 -192 2 11 -21z m105 -323 c19 -75 35
-141 35 -146 0 -6 -53 -10 -130 -10 -71 0 -130 4 -130 8 0 14 181 294 187 289
2 -2 19 -66 38 -141z"/>
<path d="M3867 1181 c-15 -43 -27 -81 -27 -85 0 -3 16 1 36 9 25 10 70 15 141
15 95 0 104 -2 99 -17 -6 -22 -49 -254 -86 -472 -20 -116 -44 -206 -63 -228
-7 -10 30 -13 181 -13 l190 0 -5 43 c-4 41 11 139 78 504 l34 183 98 0 c62 0
110 -5 132 -14 18 -8 36 -12 39 -8 3 3 6 41 6 84 l0 78 -413 0 -414 0 -26 -79z"/>
<path d="M4807 1183 c-3 -43 -17 -141 -31 -218 -15 -77 -38 -207 -52 -290 -14
-82 -36 -180 -48 -218 l-23 -67 380 2 379 3 29 78 c24 67 26 78 11 71 -9 -4
-108 -10 -219 -12 -232 -4 -212 -14 -189 96 8 37 17 84 21 105 l6 37 158 0
c90 0 172 -5 190 -11 18 -6 34 -10 36 -8 3 4 34 173 31 176 0 1 -21 -3 -46 -7
-25 -5 -112 -9 -194 -10 l-148 0 6 48 c4 26 12 73 18 105 l11 58 191 -3 c105
-2 199 -7 209 -12 15 -7 17 -1 17 73 l0 81 -369 0 -368 0 -6 -77z"/>
<path d="M5830 1251 c-81 -17 -147 -77 -175 -161 -13 -41 -37 -161 -80 -401
-28 -158 -16 -226 46 -270 34 -24 35 -24 345 -27 l312 -3 26 77 c14 43 25 79
23 80 -1 2 -20 -1 -42 -6 -22 -5 -117 -10 -211 -10 -139 0 -174 3 -184 15 -9
11 -8 39 9 132 12 65 30 170 42 233 28 158 37 188 60 201 23 12 358 7 397 -6
22 -7 22 -6 22 74 l0 81 -277 -1 c-153 -1 -294 -4 -313 -8z"/>
<path d="M6533 1191 c-1 -37 -8 -104 -17 -147 -9 -43 -22 -117 -30 -164 -52
-302 -69 -388 -86 -434 -11 -28 -20 -52 -20 -53 0 -2 82 -3 183 -3 l183 0 1
63 c1 58 38 290 49 309 3 4 61 8 130 8 l125 0 -6 -37 c-21 -124 -59 -291 -71
-310 -8 -12 -14 -25 -14 -28 0 -3 83 -5 185 -5 l185 0 0 54 c0 29 9 103 19
162 11 60 29 163 40 229 43 244 63 339 82 381 l18 44 -184 0 -185 0 0 -52 c0
-29 -10 -108 -22 -175 l-22 -123 -129 0 -129 0 6 28 c3 15 13 70 22 122 9 52
24 117 35 145 10 27 19 51 19 53 0 1 -82 2 -183 2 l-183 0 -1 -69z"/>
<path d="M7599 1209 c1 -28 -9 -116 -24 -197 -31 -172 -68 -378 -85 -477 -7
-38 -21 -87 -32 -108 l-18 -37 92 0 93 0 -3 44 c-4 41 5 96 73 471 13 72 26
147 30 169 3 21 10 35 14 30 5 -5 23 -54 40 -109 18 -55 61 -192 97 -305 37
-113 73 -226 81 -252 l15 -48 214 0 c213 0 214 0 218 22 3 13 24 127 46 253
80 443 99 538 115 561 8 13 15 26 15 29 0 3 -42 5 -92 5 l-93 0 3 -49 c2 -27
-3 -84 -12 -127 -8 -44 -31 -171 -51 -284 -45 -259 -44 -255 -54 -244 -5 5
-34 90 -66 189 -49 155 -101 319 -150 470 l-13 40 -228 3 -229 2 4 -51z"/>
<path d="M8714 1187 c-1 -39 -9 -110 -18 -157 -25 -121 -42 -214 -56 -300 -24
-141 -49 -259 -65 -296 -8 -20 -15 -38 -15 -40 0 -2 83 -4 184 -4 l184 0 0 63
c0 34 10 116 22 182 12 66 33 181 46 255 14 74 29 160 34 191 9 52 29 123 45
162 7 16 -5 17 -176 17 l-184 0 -1 -73z"/>
<path d="M4070 267 c-143 -34 -184 -109 -87 -159 59 -30 250 -33 315 -4 23 10
42 23 42 28 0 14 -45 9 -70 -9 -37 -26 -193 -30 -240 -6 -69 36 -40 109 54
134 60 16 205 7 221 -14 13 -18 65 -24 65 -8 0 38 -195 62 -300 38z"/>
<path d="M4700 269 c-72 -14 -116 -38 -136 -75 -17 -32 -17 -34 1 -55 41 -44
73 -53 200 -54 114 0 123 2 180 30 44 22 63 38 70 59 8 25 6 31 -22 56 -50 45
-175 62 -293 39z m237 -42 c23 -23 26 -31 17 -54 -17 -50 -66 -68 -180 -68
-108 0 -148 12 -158 48 -3 11 0 30 6 41 27 51 75 66 196 63 85 -3 95 -5 119
-30z"/>
<path d="M5836 191 c-20 -48 -36 -90 -36 -94 0 -4 11 -7 25 -7 19 0 29 10 45
40 l20 40 121 0 c125 0 183 13 196 45 3 9 -1 23 -9 31 -17 17 -149 34 -254 33
l-72 -1 -36 -87z m295 59 c25 -14 24 -35 -3 -54 -17 -12 -48 -16 -125 -16
-111 0 -115 2 -91 55 11 24 14 25 105 25 52 0 103 -5 114 -10z"/>
<path d="M6498 262 c-103 -28 -145 -78 -107 -126 30 -38 82 -51 204 -50 87 1
121 5 160 21 61 25 90 60 81 98 -16 63 -201 94 -338 57z m242 -20 c27 -13 36
-24 38 -49 3 -26 -3 -36 -34 -59 -33 -26 -45 -29 -133 -32 -115 -4 -164 14
-169 61 -4 35 12 55 63 78 55 25 186 26 235 1z"/>
<path d="M9096 261 c-109 -28 -149 -96 -86 -143 35 -25 141 -41 229 -33 123
10 201 52 201 106 0 75 -182 112 -344 70z m244 -19 c66 -33 44 -109 -39 -132
-60 -16 -181 -12 -221 8 -43 21 -53 67 -21 96 51 46 212 63 281 28z"/>
<path d="M5233 176 l-41 -96 28 0 c25 0 32 7 49 45 l20 45 93 0 c112 0 141
-13 131 -60 -5 -28 -4 -30 26 -30 29 0 31 2 31 35 0 28 -5 38 -26 47 -26 12
-26 12 17 23 53 13 71 37 46 62 -15 15 -41 18 -175 21 l-158 4 -41 -96z m301
74 c14 -5 26 -16 26 -24 0 -31 -32 -41 -147 -45 -123 -3 -127 -2 -101 54 11
24 14 25 104 25 51 0 104 -4 118 -10z"/>
<path d="M7062 192 c-49 -113 -49 -112 -16 -112 25 0 32 7 47 45 l19 45 95 0
c113 0 135 -9 131 -53 -3 -28 0 -32 25 -35 25 -3 27 -1 27 37 0 32 -4 41 -22
47 -20 6 -17 9 21 20 46 13 62 29 54 50 -9 24 -74 34 -213 34 l-135 -1 -33
-77z m303 56 c30 -14 31 -19 4 -44 -17 -16 -40 -20 -135 -23 -63 -2 -114 0
-114 3 0 4 7 22 14 41 l15 35 95 0 c52 0 107 -5 121 -12z"/>
<path d="M7759 214 c-41 -30 -96 -69 -124 -87 l-50 -32 32 -3 c23 -2 43 4 66
22 31 24 41 26 141 26 104 0 107 -1 118 -25 8 -18 19 -25 40 -25 15 0 28 3 28
6 0 4 -12 28 -28 53 -15 25 -36 63 -47 84 -18 34 -23 37 -61 37 -34 0 -53 -9
-115 -56z m142 -13 l18 -41 -86 0 c-53 0 -83 4 -77 9 41 41 111 88 118 81 5
-5 17 -27 27 -49z"/>
<path d="M8238 263 c45 -2 82 -6 82 -9 0 -3 -16 -39 -35 -80 -19 -41 -35 -77
-35 -79 0 -3 13 -5 29 -5 27 0 32 6 63 83 l35 82 89 6 c56 3 16 5 -111 5 -110
0 -163 -2 -117 -3z"/>
<path d="M8737 263 c-7 -12 -67 -164 -67 -169 0 -3 12 -4 27 -2 24 3 32 14 64
91 l37 87 -28 0 c-16 0 -31 -3 -33 -7z"/>
<path d="M9659 188 c-19 -45 -35 -85 -37 -90 -2 -4 9 -8 25 -8 24 0 31 6 42
38 8 20 22 57 33 81 l19 44 37 -34 c20 -19 63 -56 94 -83 49 -40 63 -47 95
-44 36 3 38 4 74 91 l37 87 -27 0 c-24 0 -30 -8 -60 -80 l-32 -80 -95 80 c-82
69 -101 80 -133 80 -37 0 -37 0 -72 -82z"/>
</g>
</svg>
